<?xml version="1.0" standalone="no"?>
<!DOCTYPE svg PUBLIC "-//W3C//DTD SVG 20010904//EN"
 "http://www.w3.org/TR/2001/REC-SVG-20010904/DTD/svg10.dtd">
<svg version="1.0" xmlns="http://www.w3.org/2000/svg"
 width="512.000000pt" height="512.000000pt" viewBox="0 0 512.000000 512.000000"
 preserveAspectRatio="xMidYMid meet">

<g transform="translate(0.000000,512.000000) scale(0.100000,-0.100000)"
fill="#000000" stroke="none">
<path d="M2917 4462 c-16 -10 -338 -466 -777 -1100 -663 -958 -750 -1088 -750
-1121 0 -40 19 -74 53 -93 16 -10 133 -14 453 -18 l432 -5 -224 -675 c-123
-371 -224 -690 -224 -708 0 -26 9 -43 35 -69 32 -32 40 -35 77 -30 27 4 51 15
69 34 21 22 1236 1597 1602 2076 73 96 84 138 51 186 -35 49 -52 51 -509 51
-278 0 -425 3 -425 10 0 6 68 319 151 696 167 757 163 724 95 765 -39 24 -73
24 -109 1z m-273 -1077 c-57 -258 -104 -487 -104 -507 0 -27 8 -47 29 -70 l29
-33 401 -3 c221 -2 401 -5 401 -7 0 -2 -250 -329 -555 -726 -305 -396 -555
-717 -555 -712 0 4 65 204 145 443 84 250 145 451 145 472 0 27 -8 47 -29 70
l-29 33 -410 5 -409 5 521 752 c286 414 521 751 522 750 1 -1 -45 -213 -102
-472z"/>
<path d="M445 4259 c-76 -11 -205 -73 -267 -128 -58 -51 -115 -136 -148 -221
l-25 -65 -3 -1147 c-3 -1274 -5 -1216 63 -1347 59 -113 168 -207 290 -254 59
-22 69 -22 568 -25 l508 -3 29 30 c22 22 30 39 30 66 0 42 -22 89 -47 101 -10
5 -236 11 -503 14 -484 5 -485 5 -538 29 -68 31 -144 113 -169 183 -17 50 -18
113 -18 1183 l0 1130 26 56 c33 69 89 127 155 160 l49 24 805 5 c621 4 810 8
827 18 52 29 70 104 37 151 -37 52 -25 51 -846 50 -420 -1 -790 -5 -823 -10z"/>
<path d="M3473 4254 c-29 -15 -63 -65 -63 -94 0 -23 30 -75 52 -90 19 -12 90
-16 408 -20 378 -5 386 -5 428 -28 66 -35 119 -88 149 -150 26 -54 28 -67 33
-222 3 -111 9 -173 18 -188 23 -41 69 -52 212 -52 l132 0 29 -29 29 -29 0
-682 c0 -728 1 -713 -48 -736 -9 -5 -83 -11 -164 -14 -145 -5 -148 -6 -175
-33 -28 -27 -28 -28 -33 -200 -6 -172 -6 -172 -40 -235 -37 -70 -68 -100 -144
-140 l-51 -27 -595 -5 c-640 -5 -625 -4 -649 -57 -20 -45 -13 -92 18 -124 l29
-29 594 0 c651 0 655 0 767 60 78 42 143 100 190 170 63 95 83 158 90 290 l6
115 95 5 c154 8 239 62 299 190 l26 55 0 715 0 715 -28 57 c-34 69 -110 140
-175 163 -26 9 -86 19 -134 22 l-88 6 0 86 c0 195 -88 362 -244 463 -121 78
-143 81 -566 85 -330 3 -379 1 -407 -13z"/>
</g>
</svg>
