<?xml version="1.0" standalone="no"?>
<!DOCTYPE svg PUBLIC "-//W3C//DTD SVG 20010904//EN"
 "http://www.w3.org/TR/2001/REC-SVG-20010904/DTD/svg10.dtd">
<svg version="1.0" xmlns="http://www.w3.org/2000/svg"
 width="512.000000pt" height="512.000000pt" viewBox="0 0 512.000000 512.000000"
 preserveAspectRatio="xMidYMid meet">

<g transform="translate(0.000000,512.000000) scale(0.100000,-0.100000)"
fill="#000000" stroke="none">
<path d="M1783 4545 c-96 -21 -190 -72 -258 -140 -48 -48 -104 -132 -273 -413
-117 -193 -215 -359 -219 -368 -3 -8 -11 -13 -17 -10 -145 65 -242 81 -295 50
-62 -37 -77 -126 -28 -172 26 -25 69 -42 103 -42 26 0 98 -33 109 -49 3 -6
-15 -51 -40 -101 l-45 -90 -71 0 c-92 0 -210 -25 -285 -60 -116 -56 -225 -207
-263 -364 -7 -27 -39 -252 -73 -500 -49 -367 -60 -476 -60 -586 0 -213 43
-342 149 -447 58 -57 148 -105 229 -122 36 -7 586 -11 1760 -11 1666 -1 1711
-1 1771 18 133 42 205 110 245 231 18 58 22 96 26 309 l4 242 192 0 c265 0
343 25 467 149 70 70 106 130 133 220 24 80 24 775 0 809 -23 33 -67 52 -123
52 l-50 0 -3 268 c-3 299 -7 317 -76 370 l-35 27 -191 0 c-184 0 -192 -1 -224
-23 -18 -13 -41 -41 -52 -62 -18 -36 -20 -60 -20 -310 l0 -270 -110 0 -109 0
-3 273 c-3 306 -7 326 -77 373 -35 23 -41 24 -225 24 l-189 0 -42 -43 c-25
-25 -47 -58 -54 -82 -7 -24 -11 -138 -11 -292 l0 -251 -89 -4 c-78 -3 -93 -6
-115 -27 -14 -14 -30 -41 -36 -60 -13 -46 -13 -601 0 -699 26 -202 169 -367
369 -426 42 -12 100 -16 248 -16 l194 0 -3 -237 c-3 -269 -9 -291 -76 -321
-34 -16 -170 -17 -1747 -17 -1643 0 -1712 1 -1758 19 -91 35 -134 127 -144
306 -4 91 3 165 56 565 73 550 85 597 163 675 69 69 -21 64 1276 70 l1174 5
29 33 c49 55 33 144 -33 178 -27 14 -72 16 -342 14 -171 -1 -589 -2 -928 -1
l-617 1 76 148 c117 226 489 839 542 893 82 84 37 80 997 79 463 0 855 -5 871
-9 53 -15 83 -42 123 -110 41 -71 68 -91 124 -91 63 0 114 67 102 133 -10 53
-95 172 -154 217 -30 22 -84 50 -120 62 l-67 23 -860 2 c-698 1 -872 -1 -922
-12z m2047 -1170 l0 -225 -75 0 -75 0 0 225 0 225 75 0 75 0 0 -225z m810 0
l0 -225 -75 0 -75 0 0 225 0 225 75 0 75 0 0 -225z m198 -738 l-3 -283 -30
-59 c-36 -71 -94 -118 -170 -140 -46 -14 -122 -15 -527 -13 -466 3 -474 3
-514 25 -63 34 -97 66 -129 125 l-30 53 -3 288 -3 287 706 0 706 0 -3 -283z"/>
<path d="M723 2701 c-47 -29 -55 -70 -51 -251 3 -152 4 -157 35 -221 42 -85
119 -159 195 -187 31 -12 94 -26 140 -32 108 -13 651 -13 700 0 22 7 46 23 58
40 20 29 21 40 18 228 -3 178 -5 202 -25 244 -34 74 -104 131 -212 171 -53 20
-78 21 -441 24 -370 4 -386 3 -417 -16z m781 -220 c22 -7 52 -26 68 -41 27
-27 28 -33 28 -120 l0 -91 -287 4 c-304 4 -340 8 -387 52 -25 23 -26 29 -26
120 l0 97 283 -5 c185 -3 295 -8 321 -16z"/>
<path d="M154 1101 c-35 -15 -64 -60 -64 -101 0 -20 5 -63 11 -96 28 -154 131
-269 291 -326 60 -21 81 -22 413 -26 377 -4 431 1 520 45 105 53 195 153 195
217 0 49 -33 93 -79 107 -54 16 -88 1 -142 -63 -66 -79 -60 -78 -456 -78 -209
0 -363 4 -385 10 -79 22 -129 91 -143 199 -9 70 -44 111 -100 116 -22 3 -50 1
-61 -4z"/>
</g>
</svg>
