<?xml version="1.0" standalone="no"?>
<!DOCTYPE svg PUBLIC "-//W3C//DTD SVG 20010904//EN"
 "http://www.w3.org/TR/2001/REC-SVG-20010904/DTD/svg10.dtd">
<svg version="1.0" xmlns="http://www.w3.org/2000/svg"
 width="512.000000pt" height="512.000000pt" viewBox="0 0 512.000000 512.000000"
 preserveAspectRatio="xMidYMid meet">

<g transform="translate(0.000000,512.000000) scale(0.100000,-0.100000)"
fill="#000000" stroke="none">
<path d="M2280 5104 c-45 -20 -77 -50 -101 -96 -17 -34 -19 -62 -19 -313 l0
-275 -84 0 -84 0 -4 93 c-5 101 -17 135 -70 188 -54 53 -110 72 -213 72 -106
0 -161 -19 -218 -78 -46 -47 -67 -110 -67 -200 l0 -72 -78 -5 c-42 -3 -94 -13
-114 -21 -58 -24 -119 -86 -149 -153 -27 -59 -30 -61 -106 -96 -204 -93 -548
-177 -842 -204 -59 -5 -80 -12 -98 -30 -25 -25 -29 -54 -12 -85 18 -34 49 -38
185 -23 289 32 545 93 759 179 101 41 111 43 120 27 6 -9 33 -40 60 -68 63
-66 119 -84 259 -85 l101 -1 325 -256 325 -257 3 -1403 2 -1402 -879 0 c-873
0 -878 0 -905 -21 -20 -16 -26 -29 -26 -59 0 -73 -89 -68 1235 -71 655 -1
1630 -2 2167 -1 963 2 978 2 998 22 30 30 27 83 -6 109 -27 21 -31 21 -960 21
l-934 0 0 640 0 640 195 0 c182 0 196 1 215 20 19 19 20 33 20 483 0 459 0
464 -21 483 -19 17 -41 19 -215 22 l-194 4 0 256 0 257 332 258 332 257 151 0
c195 0 241 12 310 84 28 28 55 59 60 69 9 16 16 15 91 -17 217 -92 489 -157
785 -190 159 -17 199 -4 199 64 0 41 -40 67 -116 74 -203 20 -443 66 -611 116
-110 32 -292 105 -309 123 -6 7 -19 34 -29 62 -24 65 -96 137 -160 158 -31 11
-81 17 -136 17 l-87 0 -4 88 c-5 98 -24 146 -80 199 -52 50 -100 66 -203 66
-112 0 -160 -18 -218 -83 -52 -57 -67 -103 -67 -199 l0 -71 -119 0 -120 0 -3
284 -3 284 -30 44 c-18 25 -49 52 -75 66 -41 21 -57 22 -235 22 -147 -1 -198
-4 -225 -16z m398 -140 l22 -15 0 -2205 0 -2204 -200 0 -201 0 2 2197 2 2197
23 23 c22 22 30 23 176 23 123 0 158 -3 176 -16z m-862 -368 c32 -32 34 -38
34 -105 l0 -71 -140 0 -140 0 0 71 c0 67 2 73 34 105 32 32 37 34 106 34 69 0
74 -2 106 -34z m1666 5 c30 -27 33 -34 36 -105 l4 -76 -141 0 -141 0 0 71 c0
67 2 73 34 105 32 32 38 34 105 34 64 0 74 -3 103 -29z m-1332 -456 l0 -135
-421 0 c-463 0 -474 1 -504 61 -23 43 -22 115 2 147 45 62 47 62 506 62 l417
0 0 -135z m1693 111 c45 -18 70 -60 70 -116 0 -55 -15 -85 -56 -110 -31 -19
-54 -20 -519 -20 l-488 0 0 130 0 130 480 0 c383 0 487 -3 513 -14z m-1683
-556 c0 -88 -3 -160 -6 -160 -7 0 -404 310 -404 315 0 3 92 5 205 5 l205 0 0
-160z m1083 137 c-15 -13 -102 -81 -193 -152 -91 -70 -173 -135 -182 -143 -17
-14 -18 -6 -18 151 l0 167 211 0 211 0 -29 -23z m-103 -1512 l0 -355 -145 0
-145 0 0 355 0 355 145 0 145 0 0 -355z"/>
<path d="M995 125 c-14 -13 -25 -36 -25 -50 0 -14 11 -37 25 -50 l24 -25 1539
0 c1534 0 1538 0 1560 20 29 27 29 83 2 110 -20 20 -33 20 -1560 20 l-1541 0
-24 -25z"/>
</g>
</svg>
