<?xml version="1.0" standalone="no"?>
<!DOCTYPE svg PUBLIC "-//W3C//DTD SVG 20010904//EN"
 "http://www.w3.org/TR/2001/REC-SVG-20010904/DTD/svg10.dtd">
<svg version="1.0" xmlns="http://www.w3.org/2000/svg"
 width="512.000000pt" height="512.000000pt" viewBox="0 0 512.000000 512.000000"
 preserveAspectRatio="xMidYMid meet">

<g transform="translate(0.000000,512.000000) scale(0.100000,-0.100000)"
fill="#000000" stroke="none">
<path d="M1746 5029 c-15 -12 -26 -30 -26 -44 0 -13 -16 -42 -36 -66 -52 -62
-64 -92 -64 -154 0 -62 12 -92 64 -154 20 -24 36 -51 36 -62 0 -10 -15 -36
-34 -56 -47 -53 -66 -95 -66 -146 0 -52 22 -77 67 -77 34 0 57 22 67 64 4 16
23 48 41 71 84 102 85 197 3 290 -49 56 -49 84 0 140 63 72 78 150 37 190 -30
30 -54 31 -89 4z"/>
<path d="M2043 5035 c-12 -9 -25 -31 -29 -50 -3 -18 -21 -52 -40 -74 -85 -99
-85 -190 1 -295 19 -24 35 -53 35 -65 0 -12 -18 -43 -39 -69 -64 -76 -80 -153
-41 -192 41 -41 120 -10 120 47 0 13 15 40 34 60 48 55 66 95 66 153 0 58 -18
98 -66 153 -20 21 -34 48 -34 62 0 14 14 41 34 62 72 81 88 164 40 202 -32 25
-52 26 -81 6z"/>
<path d="M2336 5029 c-15 -12 -26 -30 -26 -44 0 -13 -19 -46 -44 -75 -83 -97
-83 -193 0 -290 24 -28 44 -56 44 -61 0 -17 -21 -52 -56 -92 -19 -23 -38 -60
-44 -89 -11 -45 -11 -53 7 -76 11 -15 32 -28 47 -30 37 -5 76 22 76 52 0 13
20 50 45 82 86 111 84 192 -9 303 -20 24 -36 49 -36 56 0 7 16 32 36 56 50 59
67 97 68 147 1 35 -4 48 -23 63 -30 24 -52 24 -85 -2z"/>
<path d="M4389 4196 c-70 -48 -69 -36 -69 -595 l0 -500 -25 -25 c-23 -23 -25
-33 -25 -114 0 -122 -8 -129 -151 -134 -85 -2 -111 -7 -126 -21 -18 -16 -42
-17 -254 -15 l-234 3 -5 485 c-5 473 -6 486 -27 525 -77 145 -324 258 -696
319 -231 39 -328 47 -628 53 -826 17 -1456 -139 -1569 -389 -19 -42 -20 -79
-20 -1494 l0 -1451 -46 -13 c-59 -17 -154 -80 -188 -125 -15 -20 -39 -61 -54
-93 -23 -49 -27 -70 -27 -152 0 -86 3 -101 32 -162 55 -116 154 -194 278 -218
44 -8 454 -10 1515 -8 l1455 3 67 32 c84 39 155 109 194 188 26 55 29 69 29
165 0 96 -3 110 -29 165 -49 101 -120 159 -258 214 l-28 11 0 325 0 325 233 0
c188 -1 236 -3 251 -15 14 -11 48 -15 120 -15 140 -1 156 -16 156 -149 0 -67
3 -84 20 -101 19 -19 19 -38 22 -527 l3 -508 23 -37 c14 -22 41 -45 67 -58 40
-20 58 -21 189 -18 127 3 148 5 172 24 40 29 64 65 74 110 5 21 10 257 10 524
1 410 3 488 15 504 12 16 15 56 15 190 0 94 -5 200 -11 236 -31 195 -192 364
-386 405 -46 10 -133 15 -270 15 -190 0 -204 -1 -223 -20 -19 -19 -33 -20
-250 -20 l-231 0 3 108 3 107 232 3 c222 2 234 1 253 -18 19 -19 33 -20 238
-20 242 0 293 8 393 61 71 38 167 136 203 207 45 90 56 158 56 373 0 161 -3
199 -15 209 -12 10 -15 88 -17 530 -3 508 -3 519 -24 547 -11 15 -36 38 -54
51 -31 20 -44 22 -189 22 -149 0 -158 -1 -192 -24z m319 -608 l2 -488 -125 0
-125 0 0 490 0 491 123 -3 122 -3 3 -487z m-2312 442 c474 -37 808 -130 924
-256 l40 -44 0 -180 0 -180 -1330 0 -1330 0 0 173 c0 201 4 213 93 272 145 96
452 175 797 204 69 6 141 13 160 15 85 8 529 5 646 -4z m964 -1990 l0 -1190
-1330 0 -1330 0 0 1190 0 1190 1330 0 1330 0 0 -1190z m1378 753 c-3 -161 -4
-171 -31 -225 -36 -74 -101 -139 -175 -175 -55 -27 -63 -28 -239 -31 l-183 -4
0 166 0 166 68 0 c141 1 232 87 232 220 l0 50 166 0 166 0 -4 -167z m-768
-268 l0 -125 -235 0 -235 0 0 125 0 125 235 0 235 0 0 -125z m485 -600 c124
-32 228 -136 260 -260 10 -38 15 -106 15 -192 l0 -133 -165 0 -165 0 0 38 c0
67 -20 115 -69 163 -51 52 -96 69 -178 69 l-53 0 0 165 0 165 148 0 c100 0
167 -5 207 -15z m-500 -155 l0 -125 -225 0 -225 0 -3 114 c-1 63 0 121 2 128
4 11 50 13 228 11 l223 -3 0 -125z m743 -1054 c1 -345 -1 -483 -9 -492 -8 -10
-41 -14 -124 -14 -94 0 -114 3 -119 16 -3 9 -6 231 -6 495 l0 480 128 -3 127
-3 3 -479z m-1192 -21 c230 -68 230 -402 0 -470 -73 -22 -2878 -22 -2950 -1
-62 19 -109 56 -143 114 -24 40 -28 58 -28 122 0 64 4 82 28 122 33 56 80 95
139 113 67 21 2883 21 2954 0z"/>
<path d="M1966 2689 c-90 -105 -293 -424 -377 -590 -107 -213 -126 -341 -74
-495 126 -374 592 -498 879 -234 159 147 220 358 157 545 -53 156 -178 382
-343 620 -150 216 -175 232 -242 154z m171 -299 c154 -232 260 -433 289 -550
41 -163 -55 -349 -223 -432 -64 -31 -74 -33 -173 -33 -98 0 -109 2 -171 32
-121 60 -213 185 -228 313 -10 82 9 163 67 283 66 139 250 437 320 519 18 21
15 23 119 -132z"/>
</g>
</svg>
