<?xml version="1.0" standalone="no"?>
<!DOCTYPE svg PUBLIC "-//W3C//DTD SVG 20010904//EN"
 "http://www.w3.org/TR/2001/REC-SVG-20010904/DTD/svg10.dtd">
<svg version="1.0" xmlns="http://www.w3.org/2000/svg"
 width="512.000000pt" height="512.000000pt" viewBox="0 0 512.000000 512.000000"
 preserveAspectRatio="xMidYMid meet">

<g transform="translate(0.000000,512.000000) scale(0.100000,-0.100000)"
fill="#000000" stroke="none">
<path d="M480 4227 c-49 -16 -133 -102 -148 -153 -17 -60 -17 -2648 0 -2708
23 -77 135 -166 211 -166 13 0 16 -19 19 -109 3 -118 12 -141 72 -185 26 -20
40 -21 326 -21 286 0 300 1 326 21 60 44 69 67 72 185 l4 109 1198 0 1198 0 4
-109 c3 -118 12 -141 72 -185 26 -20 40 -21 326 -21 286 0 300 1 326 21 60 44
69 67 72 185 3 95 6 109 21 109 10 0 38 7 64 16 57 19 128 93 145 152 17 57
17 2647 0 2704 -6 22 -31 62 -55 88 -79 88 125 80 -2177 79 -1458 -1 -2051 -4
-2076 -12z m4135 -172 l25 -24 0 -1311 0 -1311 -25 -24 -24 -25 -2031 0 -2031
0 -24 25 -25 24 0 1311 0 1311 25 24 24 25 2031 0 2031 0 24 -25z m-3415
-2935 l0 -80 -240 0 -240 0 0 80 0 80 240 0 240 0 0 -80z m3200 0 l0 -80 -240
0 -240 0 0 80 0 80 240 0 240 0 0 -80z"/>
<path d="M1660 3825 c-276 -44 -542 -204 -711 -427 -321 -427 -301 -1008 49
-1415 243 -282 648 -429 1011 -369 500 84 870 461 941 961 47 335 -74 688
-320 935 -256 256 -612 371 -970 315z m273 -151 c12 -4 5 -24 -34 -97 -89
-171 -149 -395 -149 -564 0 -44 -5 -75 -12 -79 -26 -16 -208 228 -269 361 -33
74 -69 201 -69 246 0 24 8 33 48 53 58 29 172 64 249 75 69 10 215 13 236 5z
m318 -90 c113 -55 208 -124 284 -206 l57 -61 -114 -37 c-189 -62 -309 -130
-471 -267 -102 -87 -103 -86 -93 45 14 165 53 309 117 430 49 93 87 142 108
142 10 0 60 -21 112 -46z m-896 -414 c49 -98 117 -197 198 -290 36 -41 63 -79
60 -84 -15 -23 -267 12 -403 55 -121 39 -280 135 -280 168 0 30 90 203 141
273 28 37 77 92 111 123 l61 57 37 -114 c21 -63 54 -147 75 -188z m1365 -72
c16 -35 38 -99 50 -143 22 -84 37 -274 26 -318 l-6 -26 -84 45 c-170 90 -345
140 -534 151 -62 3 -116 11 -119 16 -17 28 254 223 384 277 77 32 175 58 226
59 25 1 31 -6 57 -61z m-1540 -402 c123 -40 265 -66 366 -66 45 0 76 -4 80
-12 15 -23 -195 -184 -324 -250 -86 -43 -180 -74 -259 -84 l-53 -7 -30 64
c-16 35 -39 100 -50 144 -22 84 -38 274 -26 318 l6 27 93 -50 c50 -27 139 -65
197 -84z m715 79 c50 -49 15 -135 -55 -135 -41 0 -80 39 -80 80 0 41 39 80 80
80 19 0 40 -9 55 -25z m438 -150 c107 -23 193 -53 275 -96 94 -50 142 -87 142
-109 0 -30 -96 -211 -148 -280 -27 -36 -75 -89 -107 -118 l-58 -53 -37 113
c-61 184 -145 332 -273 478 -36 41 -63 79 -60 84 8 12 174 0 266 -19z m-317
-182 c125 -147 220 -322 250 -462 23 -108 22 -108 -48 -141 -35 -16 -99 -38
-143 -50 -84 -22 -274 -37 -318 -26 l-27 6 50 93 c88 166 150 396 150 562 0
108 7 109 86 18z m-250 -50 c-12 -169 -51 -317 -117 -441 -50 -94 -87 -142
-109 -142 -30 0 -211 96 -280 148 -36 27 -89 75 -118 107 l-53 58 113 37 c185
61 337 148 478 273 40 36 78 63 83 60 6 -4 7 -45 3 -100z"/>
<path d="M3465 3735 c-16 -15 -25 -36 -25 -55 0 -19 9 -40 25 -55 l24 -25 391
0 391 0 24 25 c16 15 25 36 25 55 0 19 -9 40 -25 55 l-24 25 -391 0 -391 0
-24 -25z"/>
<path d="M3465 3095 c-16 -15 -25 -36 -25 -55 0 -19 9 -40 25 -55 l24 -25 391
0 391 0 24 25 c16 15 25 36 25 55 0 19 -9 40 -25 55 l-24 25 -391 0 -391 0
-24 -25z"/>
<path d="M3465 2455 c-16 -15 -25 -36 -25 -55 0 -19 9 -40 25 -55 l24 -25 391
0 391 0 24 25 c16 15 25 36 25 55 0 19 -9 40 -25 55 l-24 25 -391 0 -391 0
-24 -25z"/>
<path d="M3465 1815 c-16 -15 -25 -36 -25 -55 0 -19 9 -40 25 -55 l24 -25 391
0 391 0 24 25 c16 15 25 36 25 55 0 19 -9 40 -25 55 l-24 25 -391 0 -391 0
-24 -25z"/>
</g>
</svg>
