<?xml version="1.0" standalone="no"?>
<!DOCTYPE svg PUBLIC "-//W3C//DTD SVG 20010904//EN"
 "http://www.w3.org/TR/2001/REC-SVG-20010904/DTD/svg10.dtd">
<svg version="1.0" xmlns="http://www.w3.org/2000/svg"
 width="512.000000pt" height="512.000000pt" viewBox="0 0 512.000000 512.000000"
 preserveAspectRatio="xMidYMid meet">

<g transform="translate(0.000000,512.000000) scale(0.100000,-0.100000)"
fill="#000000" stroke="none">
<path d="M2410 5015 c-146 -31 -274 -96 -377 -192 -30 -28 -43 -48 -43 -67 0
-31 40 -76 68 -76 11 0 50 25 88 57 249 204 579 203 830 -2 37 -30 75 -55 86
-55 26 0 68 44 68 72 0 34 -21 60 -92 114 -74 55 -199 117 -283 140 -83 22
-264 27 -345 9z"/>
<path d="M2470 4679 c-104 -20 -240 -116 -240 -169 0 -26 43 -70 67 -70 10 0
47 20 83 45 122 84 241 84 361 0 34 -25 71 -45 81 -45 25 0 68 44 68 70 0 32
-67 97 -134 130 -95 46 -185 59 -286 39z"/>
<path d="M2524 4340 c-58 -24 -73 -109 -28 -154 58 -57 154 -17 154 65 0 67
-67 114 -126 89z"/>
<path d="M1116 3895 c-21 -7 -51 -26 -67 -41 -62 -59 -60 -31 -57 -904 l3
-795 32 -67 c40 -86 106 -151 191 -191 63 -30 75 -32 205 -35 l137 -4 0 -377
0 -377 25 -50 c37 -74 80 -98 181 -103 l83 -3 3 -358 3 -358 30 -43 c40 -56
120 -99 185 -99 74 0 147 43 188 110 l32 54 0 348 0 348 270 0 270 0 0 -345
c0 -248 3 -352 12 -372 24 -54 61 -93 114 -119 44 -21 64 -26 108 -22 68 6
138 46 174 100 l27 42 3 357 3 357 83 3 c101 5 144 29 181 103 l25 50 0 377 0
377 138 4 c129 3 141 5 204 35 85 40 151 105 191 191 l32 67 3 795 c3 884 5
849 -63 909 -19 16 -51 35 -72 40 -26 7 -491 11 -1438 11 -1163 -1 -1407 -3
-1439 -15z m664 -467 c1 -374 6 -443 44 -563 77 -242 296 -447 545 -510 351
-89 724 84 886 410 75 152 77 168 82 613 l5 392 303 0 c274 0 305 -2 324 -17
l22 -18 -3 -780 -3 -780 -28 -47 c-31 -53 -79 -94 -134 -114 -56 -20 -2470
-20 -2526 0 -55 20 -103 61 -134 114 l-28 47 -3 780 -3 780 22 18 c19 15 51
17 325 17 l304 0 0 -342z m1415 -43 c0 -369 -1 -382 -23 -455 -63 -203 -213
-357 -415 -425 -344 -115 -710 83 -813 440 -15 51 -18 118 -22 428 -2 203 -1
375 2 383 5 12 98 14 638 12 l633 -3 0 -380z m225 -1891 c0 -233 -4 -372 -10
-385 -10 -19 -30 -19 -850 -19 -820 0 -840 0 -850 19 -6 13 -10 152 -10 385
l0 366 860 0 860 0 0 -366z m-1270 -879 l0 -336 -25 -24 c-32 -33 -78 -33
-110 0 l-25 24 0 336 0 335 80 0 80 0 0 -335z m980 0 l0 -336 -25 -24 c-32
-33 -78 -33 -110 0 l-25 24 0 336 0 335 80 0 80 0 0 -335z"/>
<path d="M2515 3535 c-25 -24 -25 -27 -25 -190 0 -163 0 -166 25 -190 13 -14
34 -25 45 -25 12 0 32 11 45 25 25 24 25 27 25 190 0 163 0 166 -25 190 -31
32 -59 32 -90 0z"/>
<path d="M2315 3442 c-46 -28 -95 -89 -129 -162 -29 -60 -31 -73 -31 -175 0
-101 2 -115 29 -170 37 -75 124 -163 196 -198 106 -52 254 -52 360 0 72 35
159 123 196 198 27 55 29 69 29 170 0 103 -2 114 -31 176 -35 73 -92 142 -137
165 -53 28 -110 -16 -98 -76 1 -8 22 -35 46 -60 60 -62 85 -119 85 -200 0
-233 -273 -360 -447 -207 -62 56 -93 123 -93 207 0 81 25 138 85 200 24 25 45
52 46 60 6 30 -11 67 -36 78 -33 15 -35 15 -70 -6z"/>
</g>
</svg>
