<?xml version="1.0" standalone="no"?>
<!DOCTYPE svg PUBLIC "-//W3C//DTD SVG 20010904//EN"
 "http://www.w3.org/TR/2001/REC-SVG-20010904/DTD/svg10.dtd">
<svg version="1.0" xmlns="http://www.w3.org/2000/svg"
 width="512.000000pt" height="512.000000pt" viewBox="0 0 512.000000 512.000000"
 preserveAspectRatio="xMidYMid meet">

<g transform="translate(0.000000,512.000000) scale(0.100000,-0.100000)"
fill="#000000" stroke="none">
<path d="M3922 4993 l3 -128 85 0 85 0 3 128 3 127 -91 0 -91 0 3 -127z"/>
<path d="M3227 4792 l-57 -57 90 -90 90 -89 55 54 c30 30 55 59 55 65 0 10
-160 175 -171 175 -2 0 -30 -26 -62 -58z"/>
<path d="M4642 4767 c-45 -45 -82 -87 -82 -93 0 -13 102 -114 116 -114 5 0 47
38 94 85 l84 85 -59 60 c-33 33 -62 60 -65 60 -3 0 -42 -37 -88 -83z"/>
<path d="M3844 4671 c-97 -26 -135 -44 -215 -96 -182 -122 -299 -341 -299
-565 0 -207 104 -419 263 -537 220 -163 481 -188 722 -69 191 95 324 270 366
484 18 96 7 249 -27 346 -66 192 -228 354 -422 421 -106 37 -284 44 -388 16z
m291 -165 c225 -60 385 -266 385 -496 0 -278 -232 -510 -510 -510 -277 0 -510
233 -510 510 0 228 160 435 383 495 67 18 188 19 252 1z"/>
<path d="M2900 4015 l0 -85 130 0 131 0 -3 83 -3 82 -127 3 -128 3 0 -86z"/>
<path d="M4867 4093 c-4 -3 -7 -42 -7 -85 l0 -78 130 0 130 0 0 85 0 85 -123
0 c-68 0 -127 -3 -130 -7z"/>
<path d="M53 3915 c-17 -7 -36 -23 -43 -34 -7 -15 -10 -121 -8 -349 l3 -327
858 -1585 c472 -872 867 -1593 879 -1602 19 -17 101 -18 1414 -18 l1393 0 25
22 c59 52 123 -76 -997 1978 -933 1708 -1038 1897 -1068 1912 -32 17 -110 18
-1229 18 -993 -1 -1200 -3 -1227 -15z m1039 -535 c110 -201 202 -371 205 -377
4 -10 -64 -13 -323 -13 l-329 0 -207 380 -206 380 330 -2 331 -3 199 -365z
m772 -7 l206 -378 -282 -3 c-155 -1 -285 1 -289 5 -8 8 -397 718 -406 741 -4
9 56 12 280 12 l285 0 206 -377z m746 40 c102 -186 195 -357 208 -380 l24 -43
-289 0 -288 1 -202 373 c-112 205 -203 376 -203 380 0 3 127 6 283 6 l284 0
183 -337z m-1550 -1538 c480 -880 885 -1624 902 -1652 l29 -53 -74 0 -74 0
-834 1543 -834 1542 -3 125 c-1 76 1 119 7 110 5 -8 401 -735 881 -1615z m544
566 c113 -208 206 -381 206 -385 0 -3 -147 -5 -327 -4 l-326 3 -203 370 c-112
204 -203 376 -203 383 -1 9 70 12 323 12 l324 0 206 -379z m769 -1 c114 -209
207 -382 207 -385 0 -3 -128 -5 -284 -5 l-284 0 -201 368 c-110 202 -203 375
-206 385 -7 16 11 17 277 17 l283 0 208 -380z m571 358 c18 -28 406 -740 406
-745 0 -2 -129 -2 -286 -1 l-287 3 -203 373 c-112 205 -204 377 -204 383 0 5
113 9 280 9 279 0 280 0 294 -22z m-862 -1233 c93 -170 187 -343 209 -382 l40
-73 -330 0 -329 0 -204 372 c-111 204 -204 378 -206 385 -3 11 55 13 324 11
l327 -3 169 -310z m806 -70 l210 -385 -287 0 -286 0 -208 380 c-114 209 -207
382 -207 385 0 3 128 5 284 5 l284 0 210 -385z m765 6 c114 -209 207 -382 207
-385 0 -3 -128 -6 -284 -6 l-284 0 -206 379 c-113 208 -206 381 -206 385 0 3
127 6 283 6 l283 0 207 -379z m-1078 -838 c83 -152 176 -325 208 -385 l58
-108 -328 0 -328 0 -208 380 c-114 209 -207 382 -207 385 0 3 147 5 328 5
l327 -1 150 -276z m782 -28 c90 -165 184 -337 209 -383 l45 -82 -288 0 -288 1
-150 276 c-82 152 -176 325 -208 385 l-59 108 288 -2 287 -3 164 -300z m779
-20 c96 -176 190 -348 209 -382 l35 -63 -288 0 -287 0 -205 376 c-113 207
-207 380 -208 385 -2 6 111 8 283 7 l287 -3 174 -320z"/>
<path d="M3255 3380 l-90 -90 63 -62 62 -63 85 85 c47 46 85 89 85 95 0 6 -26
36 -58 68 l-57 57 -90 -90z"/>
<path d="M4615 3410 l-59 -60 89 -90 90 -90 60 60 60 60 -90 90 -90 90 -60
-60z"/>
<path d="M3924 3147 c-2 -7 -3 -65 -2 -128 l3 -114 88 -3 88 -3 -3 128 -3 128
-83 3 c-62 2 -84 -1 -88 -11z"/>
</g>
</svg>
